<svg width="50" height="50" viewBox="0 0 50 50" fill="none" xmlns="http://www.w3.org/2000/svg">
<path d="M23.7109 12.2021L9.67773 24.3164C9.27246 24.6631 9.27246 25.332 9.67773 25.6787L23.7109 37.7978C24.2334 38.2471 25 37.8418 25 37.1143V12.8809C25 12.1582 24.2334 11.748 23.7109 12.2021V12.2021ZM39.3359 12.2021L25.3027 24.3164C25.2067 24.4023 25.13 24.5077 25.0778 24.6256C25.0256 24.7435 24.9991 24.8711 25 25C25 25.2539 25.1025 25.5078 25.3027 25.6836L39.3359 37.8027C39.8584 38.252 40.625 37.8467 40.625 37.1191V12.8809C40.625 12.1582 39.8584 11.748 39.3359 12.2021Z" fill="white"/>
</svg>
